<?xml version="1.0" encoding="UTF-8" standalone="no"?>
<!-- Created with Inkscape (http://www.inkscape.org/) -->
<svg
   xmlns:dc="http://purl.org/dc/elements/1.1/"
   xmlns:cc="http://creativecommons.org/ns#"
   xmlns:rdf="http://www.w3.org/1999/02/22-rdf-syntax-ns#"
   xmlns:svg="http://www.w3.org/2000/svg"
   xmlns="http://www.w3.org/2000/svg"
   xmlns:xlink="http://www.w3.org/1999/xlink"
   xmlns:sodipodi="http://sodipodi.sourceforge.net/DTD/sodipodi-0.dtd"
   xmlns:inkscape="http://www.inkscape.org/namespaces/inkscape"
   width="640px"
   height="480px"
   id="svg3728"
   version="1.1"
   inkscape:version="0.46"
   sodipodi:docname="Fire.svg"
   sodipodi:version="0.32"
   inkscape:output_extension="org.inkscape.output.svg.inkscape"
   inkscape:export-filename="C:\Documents and Settings\Will\Desktop\SpriteLand.com\Games\Kryptal Platform Game\Backgrounds\Fire.png"
   inkscape:export-xdpi="90"
   inkscape:export-ydpi="90">
  <defs
     id="defs3730">
    <linearGradient
       id="linearGradient3208">
      <stop
         style="stop-color:#b65e30;stop-opacity:1;"
         offset="0"
         id="stop3210" />
      <stop
         style="stop-color:#f5ba94;stop-opacity:1;"
         offset="1"
         id="stop3212" />
    </linearGradient>
    <linearGradient
       id="linearGradient3200">
      <stop
         style="stop-color:#f5ba94;stop-opacity:1"
         offset="0"
         id="stop3202" />
      <stop
         style="stop-color:#c9803a;stop-opacity:1;"
         offset="1"
         id="stop3204" />
    </linearGradient>
    <linearGradient
       id="linearGradient4387">
      <stop
         style="stop-color:#b1d8df;stop-opacity:1;"
         offset="0"
         id="stop4389" />
      <stop
         style="stop-color:#729fb7;stop-opacity:1;"
         offset="1"
         id="stop4391" />
    </linearGradient>
    <linearGradient
       id="linearGradient4375">
      <stop
         style="stop-color:#c6e4e6;stop-opacity:1;"
         offset="0"
         id="stop4377" />
      <stop
         style="stop-color:#4c758e;stop-opacity:1;"
         offset="1"
         id="stop4379" />
    </linearGradient>
    <linearGradient
       id="linearGradient4369">
      <stop
         id="stop4371"
         offset="0"
         style="stop-color:#0d3d5a;stop-opacity:1;" />
      <stop
         id="stop4373"
         offset="1"
         style="stop-color:#c6e4e6;stop-opacity:1" />
    </linearGradient>
    <linearGradient
       id="linearGradient4307">
      <stop
         style="stop-color:#678fb5;stop-opacity:1;"
         offset="0"
         id="stop4309" />
      <stop
         style="stop-color:#bcdee2;stop-opacity:1;"
         offset="1"
         id="stop4311" />
    </linearGradient>
    <linearGradient
       id="linearGradient4301">
      <stop
         id="stop4303"
         offset="0"
         style="stop-color:#0d3d5a;stop-opacity:1;" />
      <stop
         id="stop4305"
         offset="1"
         style="stop-color:#c6e4e6;stop-opacity:1" />
    </linearGradient>
    <linearGradient
       id="linearGradient4266">
      <stop
         style="stop-color:#0d3d5a;stop-opacity:1;"
         offset="0"
         id="stop4268" />
      <stop
         style="stop-color:#c6e4e6;stop-opacity:1"
         offset="1"
         id="stop4270" />
    </linearGradient>
    <linearGradient
       id="linearGradient4252">
      <stop
         style="stop-color:#190200;stop-opacity:1;"
         offset="0"
         id="stop4254" />
      <stop
         id="stop3286"
         offset="0.5"
         style="stop-color:#a9623d;stop-opacity:1;" />
      <stop
         style="stop-color:#f6bb95;stop-opacity:1;"
         offset="1"
         id="stop4256" />
    </linearGradient>
    <inkscape:perspective
       sodipodi:type="inkscape:persp3d"
       inkscape:vp_x="0 : 240 : 1"
       inkscape:vp_y="0 : 1000 : 0"
       inkscape:vp_z="640 : 240 : 1"
       inkscape:persp3d-origin="320 : 160 : 1"
       id="perspective3736" />
    <linearGradient
       inkscape:collect="always"
       xlink:href="#linearGradient4252"
       id="linearGradient4258"
       x1="321.60843"
       y1="-1.0031228"
       x2="321.60843"
       y2="388.14249"
       gradientUnits="userSpaceOnUse" />
    <linearGradient
       inkscape:collect="always"
       xlink:href="#linearGradient4266"
       id="linearGradient4272"
       x1="19.361702"
       y1="262.91968"
       x2="30.978743"
       y2="559.91376"
       gradientUnits="userSpaceOnUse"
       gradientTransform="translate(0,232)" />
    <linearGradient
       inkscape:collect="always"
       xlink:href="#linearGradient4266"
       id="linearGradient4287"
       x1="198.617"
       y1="229.91325"
       x2="218.49812"
       y2="390.54956"
       gradientUnits="userSpaceOnUse"
       gradientTransform="translate(-10.039913,54.763164)" />
    <linearGradient
       inkscape:collect="always"
       xlink:href="#linearGradient4266"
       id="linearGradient4295"
       gradientUnits="userSpaceOnUse"
       gradientTransform="matrix(0.81867882,0,0,0.81867882,117.14462,56.853528)"
       x1="241.87181"
       y1="205.2207"
       x2="218.49812"
       y2="390.54956" />
    <linearGradient
       inkscape:collect="always"
       xlink:href="#linearGradient4307"
       id="linearGradient4313"
       x1="310.53149"
       y1="301.63516"
       x2="310.53149"
       y2="366.26196"
       gradientUnits="userSpaceOnUse" />
    <inkscape:perspective
       id="perspective4331"
       inkscape:persp3d-origin="0.5 : 0.33333333 : 1"
       inkscape:vp_z="1 : 0.5 : 1"
       inkscape:vp_y="0 : 1000 : 0"
       inkscape:vp_x="0 : 0.5 : 1"
       sodipodi:type="inkscape:persp3d" />
    <linearGradient
       inkscape:collect="always"
       xlink:href="#linearGradient4375"
       id="linearGradient4381"
       x1="493.82227"
       y1="405.42828"
       x2="493.82227"
       y2="321.52527"
       gradientUnits="userSpaceOnUse" />
    <linearGradient
       inkscape:collect="always"
       xlink:href="#linearGradient4387"
       id="linearGradient4393"
       x1="159.9328"
       y1="346.18213"
       x2="159.9328"
       y2="302.3887"
       gradientUnits="userSpaceOnUse" />
    <linearGradient
       inkscape:collect="always"
       xlink:href="#linearGradient4387"
       id="linearGradient4397"
       gradientUnits="userSpaceOnUse"
       x1="159.9328"
       y1="346.18213"
       x2="159.9328"
       y2="302.3887"
       gradientTransform="translate(335.88074,0)" />
    <filter
       inkscape:collect="always"
       id="filter4412"
       x="-0.24474119"
       width="1.4894824"
       y="-0.22916524"
       height="1.4583305">
      <feGaussianBlur
         inkscape:collect="always"
         stdDeviation="8.2730041"
         id="feGaussianBlur4414" />
    </filter>
    <linearGradient
       inkscape:collect="always"
       xlink:href="#linearGradient3208"
       id="linearGradient3214"
       x1="344.59937"
       y1="235.99904"
       x2="344.59937"
       y2="482.60397"
       gradientUnits="userSpaceOnUse" />
    <linearGradient
       inkscape:collect="always"
       xlink:href="#linearGradient3208"
       id="linearGradient3218"
       gradientUnits="userSpaceOnUse"
       x1="344.59937"
       y1="235.99904"
       x2="344.59937"
       y2="482.60397"
       gradientTransform="matrix(0.816318,0,0,0.816318,-140.33025,78.704119)" />
    <linearGradient
       inkscape:collect="always"
       xlink:href="#linearGradient3208"
       id="linearGradient3222"
       gradientUnits="userSpaceOnUse"
       gradientTransform="matrix(0.816318,0,0,0.816318,244.33584,78.704119)"
       x1="344.59937"
       y1="235.99904"
       x2="344.59937"
       y2="482.60397" />
    <linearGradient
       inkscape:collect="always"
       xlink:href="#linearGradient3208"
       id="linearGradient3234"
       gradientUnits="userSpaceOnUse"
       gradientTransform="matrix(0.816318,0,0,0.816318,-30.33025,78.704119)"
       x1="344.59937"
       y1="235.99904"
       x2="344.59937"
       y2="482.60397" />
    <linearGradient
       inkscape:collect="always"
       xlink:href="#linearGradient3208"
       id="linearGradient3239"
       gradientUnits="userSpaceOnUse"
       gradientTransform="matrix(0.816318,0,0,0.816318,-30.33025,78.704119)"
       x1="344.59937"
       y1="235.99904"
       x2="344.59937"
       y2="482.60397" />
    <linearGradient
       inkscape:collect="always"
       xlink:href="#linearGradient3208"
       id="linearGradient3246"
       gradientUnits="userSpaceOnUse"
       gradientTransform="matrix(0.816318,0,0,0.816318,-30.33025,78.704119)"
       x1="344.59937"
       y1="235.99904"
       x2="344.59937"
       y2="482.60397" />
    <linearGradient
       inkscape:collect="always"
       xlink:href="#linearGradient3208"
       id="linearGradient3251"
       gradientUnits="userSpaceOnUse"
       gradientTransform="matrix(0.816318,0,0,0.816318,150.99775,78.704119)"
       x1="344.59937"
       y1="235.99904"
       x2="344.59937"
       y2="482.60397" />
    <linearGradient
       inkscape:collect="always"
       xlink:href="#linearGradient3208"
       id="linearGradient3258"
       gradientUnits="userSpaceOnUse"
       gradientTransform="matrix(0.816318,0,0,0.816318,150.99775,78.704119)"
       x1="344.59937"
       y1="235.99904"
       x2="344.59937"
       y2="482.60397" />
  </defs>
  <sodipodi:namedview
     id="base"
     pagecolor="#ffffff"
     bordercolor="#666666"
     borderopacity="1.0"
     inkscape:pageopacity="0.0"
     inkscape:pageshadow="2"
     inkscape:zoom="0.5"
     inkscape:cx="381.99567"
     inkscape:cy="334.31585"
     inkscape:current-layer="layer1"
     inkscape:document-units="px"
     showgrid="false"
     inkscape:window-width="1024"
     inkscape:window-height="712"
     inkscape:window-x="-4"
     inkscape:window-y="-4"
     inkscape:window-maximized="1" />
  <metadata
     id="metadata3733">
    <rdf:RDF>
      <cc:Work
         rdf:about="">
        <dc:format>image/svg+xml</dc:format>
        <dc:type
           rdf:resource="http://purl.org/dc/dcmitype/StillImage" />
        <dc:title />
      </cc:Work>
    </rdf:RDF>
  </metadata>
  <g
     id="layer1"
     inkscape:label="Layer 1"
     inkscape:groupmode="layer">
    <rect
       style="color:#000000;fill:url(#linearGradient4258);fill-opacity:1.0;fill-rule:evenodd;stroke:none;stroke-width:3;marker:none;visibility:visible;display:inline;overflow:visible;enable-background:accumulate"
       id="rect3740"
       width="644.12958"
       height="483.37256"
       x="-0.45635968"
       y="-1.0031228" />
    <path
       style="opacity:0.41414142999999998;fill:url(#linearGradient3222);fill-opacity:1;fill-rule:evenodd;stroke:none;stroke-width:3;stroke-linecap:round;marker:none;marker-start:none;marker-mid:none;marker-end:none;stroke-miterlimit:4;stroke-dasharray:none;stroke-dashoffset:0;stroke-opacity:1;visibility:visible;display:inline;overflow:visible;enable-background:accumulate"
       d="M 522.6875 271.34375 C 516.73384 271.02293 473.73219 369.31674 417.40625 408.5 C 374.69949 438.20905 285.67942 472.75069 243.96875 478.15625 L 243.96875 482.375 L 643.6875 482.375 L 643.6875 408.65625 C 642.81311 408.06185 641.93269 407.46981 641.0625 406.875 C 576.57335 362.79382 529.60549 271.71654 522.6875 271.34375 z "
       id="path3220" />
    <path
       style="opacity:0.41414140999999999;fill:url(#linearGradient3218);fill-opacity:1;fill-rule:evenodd;stroke:none;stroke-width:3;stroke-linecap:round;marker:none;marker-start:none;marker-mid:none;marker-end:none;stroke-miterlimit:4;stroke-dasharray:none;stroke-dashoffset:0;stroke-opacity:1;visibility:visible;display:inline;overflow:visible;enable-background:accumulate"
       d="M 138.03125 271.34375 C 132.07758 271.02293 89.04469 369.31674 32.71875 408.5 C 23.498757 414.91391 12.126727 421.57032 -0.46875 428.09375 L -0.46875 482.375 L 385.125 482.375 L 385.125 477.125 C 360.2662 472.78466 304.90781 440.02795 256.40625 406.875 C 191.91712 362.79382 144.94924 271.71654 138.03125 271.34375 z "
       id="path3216" />
    <path
       style="opacity:0.57009343;fill:#ffffff;fill-opacity:1;fill-rule:evenodd;stroke:none;stroke-width:3;marker:none;visibility:visible;display:inline;overflow:visible;filter:url(#filter4412);enable-background:accumulate"
       d="M 181.40625,40.53125 C 181.30935,40.55157 181.21474,40.5831 181.125,40.625 C 165.09026,47.541608 153.875,63.505237 153.875,82.0625 C 153.875,106.95605 174.0752,127.15625 198.96875,127.15625 C 213.5285,127.15625 226.50545,120.24847 234.75,109.53125 C 235.09027,109.08215 235.08598,108.40389 234.74,107.95913 C 234.39407,107.51437 233.73774,107.34325 233.2187,107.5625 C 228.05915,109.78751 222.38569,111.03125 216.4062,111.03125 C 192.90797,111.03125 173.87495,91.998229 173.87495,68.5 C 173.87495,58.750115 177.14651,49.762523 182.6562,42.59375 C 183.29318,41.774557 182.42716,40.345627 181.4062,40.53125 L 181.40625,40.53125 z"
       id="path4354"
       sodipodi:nodetypes="ccsscscsscc"
       transform="matrix(1.2053856,0,0,1.2053856,197.49016,52.239915)" />
    <path
       style="opacity:0.0373832;fill:#000000;fill-opacity:1;fill-rule:evenodd;stroke:none;stroke-width:3;marker:none;visibility:visible;display:inline;overflow:visible;enable-background:accumulate"
       d="M 437.32426,98.345919 C 429.91868,98.345919 422.85284,99.850373 416.45601,102.60244 C 409.59265,111.51398 405.53219,122.69094 405.53219,134.80884 C 405.53219,163.97421 429.17778,187.61978 458.34315,187.61978 C 465.76471,187.61978 472.80358,186.08891 479.21141,183.32561 C 486.06392,174.41792 490.1352,163.26421 490.1352,151.15688 C 490.1352,121.99151 466.48963,98.345919 437.32426,98.345919 L 437.32426,98.345919 z"
       id="path4317" />
    <path
       style="fill:#ffffff;fill-opacity:1;fill-rule:evenodd;stroke:none;stroke-width:3;marker:none;visibility:visible;display:inline;overflow:visible;enable-background:accumulate"
       d="M 416.41834,102.6401 C 397.64695,110.73717 384.51329,129.4148 384.51329,151.15688 C 384.51329,180.32226 408.15886,203.96784 437.32426,203.96784 C 454.38231,203.96784 469.55688,195.87569 479.21141,183.32561 C 472.80358,186.08891 465.76471,187.61978 458.34315,187.61978 C 429.17778,187.61978 405.53219,163.97421 405.53219,134.80884 C 405.53219,122.70991 409.5745,111.54478 416.41834,102.6401 L 416.41834,102.6401 z M 479.21141,183.32561 C 479.6381,182.77094 480.04962,182.20233 480.45445,181.63054 C 480.04822,182.20449 479.63968,182.76887 479.21141,183.32561 z M 466.8562,107.34864 C 468.26098,108.29772 469.62025,109.3235 470.92438,110.39977 C 469.62031,109.32356 468.26092,108.29765 466.8562,107.34864 z M 472.84546,112.05717 C 473.47069,112.62547 474.05622,113.23027 474.65354,113.82759 C 474.05022,113.22365 473.4773,112.63146 472.84546,112.05717 z M 478.08136,117.55675 C 479.15762,118.86089 480.1834,120.22014 481.13248,121.62492 C 480.18346,120.22021 479.15756,118.86082 478.08136,117.55675 z M 489.38184,160.0466 C 489.25971,160.76846 489.11864,161.48212 488.96749,162.1937 C 489.11899,161.48262 489.25923,160.76795 489.38184,160.0466 z"
       id="path4315" />
    <path
       style="opacity:0.03092783;fill:#000000;fill-opacity:1;fill-rule:evenodd;stroke:none;stroke-width:3;stroke-linecap:round;marker:none;marker-start:none;marker-mid:none;marker-end:none;stroke-miterlimit:4;stroke-dasharray:none;stroke-dashoffset:0;stroke-opacity:1;visibility:visible;display:inline;overflow:visible;enable-background:accumulate"
       d="M 522.6875 271.34375 C 516.73384 271.02293 473.73219 369.31674 417.40625 408.5 C 403.88558 417.90568 385.70886 427.76598 365.875 437.0625 L 340.65625 482.375 L 468.875 482.375 C 492.09448 443.84234 518.16472 398.15823 524 378 C 533.14971 346.39192 526.40923 290.02475 523.875 271.90625 C 523.40861 271.54041 522.9963 271.36039 522.6875 271.34375 z "
       id="path3271" />
    <path
       style="opacity:0.03092783;fill:#000000;fill-opacity:1;fill-rule:evenodd;stroke:none;stroke-width:3;stroke-linecap:round;marker:none;marker-start:none;marker-mid:none;marker-end:none;stroke-miterlimit:4;stroke-dasharray:none;stroke-dashoffset:0;stroke-opacity:1;visibility:visible;display:inline;overflow:visible;enable-background:accumulate"
       d="M 138.03125 271.34375 C 132.07758 271.02293 89.04469 369.31674 32.71875 408.5 C 23.498757 414.91391 12.126727 421.57032 -0.46875 428.09375 L -0.46875 482.375 L 69.96875 482.375 C 86.254507 460.67392 115.91746 418.59551 129.40625 383.125 C 144.26531 344.05116 141.14973 292.69435 139.03125 271.78125 C 138.64311 271.50125 138.29991 271.35823 138.03125 271.34375 z "
       id="path3266" />
    <path
       style="opacity:1;fill:url(#linearGradient3214);fill-opacity:1;fill-rule:evenodd;stroke:none;stroke-width:3;stroke-linecap:round;marker:none;marker-start:none;marker-mid:none;marker-end:none;stroke-miterlimit:4;stroke-dasharray:none;stroke-dashoffset:0;stroke-opacity:1;visibility:visible;display:inline;overflow:visible;enable-background:accumulate"
       d="M 341 236 C 333.70668 235.60699 281 356 212 404 C 159.68369 440.39396 50.627364 458.22187 -0.46875 464.84375 L -0.46875 482.375 L 643.6875 482.375 L 643.6875 463.5625 C 613.23517 458.24554 545.41503 442.6128 486 402 C 407 348 349.47463 236.45667 341 236 z "
       id="path3193" />
    <path
       style="opacity:0.21649485;fill:url(#linearGradient3246);fill-opacity:1;fill-rule:evenodd;stroke:none;stroke-width:3;stroke-linecap:round;marker:none;marker-start:none;marker-mid:none;marker-end:none;stroke-miterlimit:4;stroke-dasharray:none;stroke-dashoffset:0;stroke-opacity:1;visibility:visible;display:inline;overflow:visible;enable-background:accumulate"
       d="M 248.03125 271.34375 C 244.22006 271.13838 225.21032 311.35248 197.25 350.59375 C 207.8299 363.35278 219.5532 376.13491 232.1875 387.59375 C 252.11769 369.15315 270.26711 345.79488 285.8125 322.96875 C 265.04205 294.528 251.50036 271.53069 248.03125 271.34375 z "
       id="path3232" />
    <path
       style="opacity:0.19072165;fill:url(#linearGradient3258);fill-opacity:1;fill-rule:evenodd;stroke:none;stroke-width:3;stroke-linecap:round;marker:none;marker-start:none;marker-mid:none;marker-end:none;stroke-miterlimit:4;stroke-dasharray:none;stroke-dashoffset:0;stroke-opacity:1;visibility:visible;display:inline;overflow:visible;enable-background:accumulate"
       d="M 429.34375 271.34375 C 426.646 271.19838 416.32913 291.32404 400.625 317 C 415.81825 336.58799 433.40844 357.08437 452.84375 375.1875 C 462.55367 363.7994 471.51622 351.50856 479.59375 339.46875 C 451.81143 303.98102 433.46475 271.56582 429.34375 271.34375 z "
       id="path3249" />
    <path
       style="opacity:0.03092784;fill:#000000;fill-opacity:1;fill-rule:evenodd;stroke:none;stroke-width:3;stroke-linecap:round;marker:none;marker-start:none;marker-mid:none;marker-end:none;stroke-miterlimit:4;stroke-dasharray:none;stroke-dashoffset:0;stroke-opacity:1;visibility:visible;display:inline;overflow:visible;enable-background:accumulate"
       d="M 341 236 C 333.70668 235.60699 281 356 212 404 C 159.68369 440.39396 50.627364 458.22187 -0.46875 464.84375 L -0.46875 482.375 L 259.96875 482.375 C 284.54036 453.93001 322.20532 405.10952 335.15625 359.78125 C 350.65361 305.54048 345.3772 255.78261 342.34375 236.65625 C 341.81059 236.2508 341.35911 236.01935 341 236 z "
       id="path3261" />
    <path
       style="opacity:0.03092783;fill:#000000;fill-opacity:1;fill-rule:evenodd;stroke:none;stroke-width:3;stroke-linecap:round;marker:none;marker-start:none;marker-mid:none;marker-end:none;stroke-miterlimit:4;stroke-dasharray:none;stroke-dashoffset:0;stroke-opacity:1;visibility:visible;display:inline;overflow:visible;enable-background:accumulate"
       d="M 428.875 271.46875 C 425.60258 273.19222 415.55691 292.5866 400.625 317 C 407.25927 325.55328 414.37262 334.28145 421.875 342.90625 C 426.30567 335.05298 429.55629 328.06948 430.625 323.03125 C 434.04318 306.91699 431.05196 284.0719 428.875 271.46875 z "
       id="path3276" />
    <path
       style="opacity:0.03092783;fill:#000000;fill-opacity:1;fill-rule:evenodd;stroke:none;stroke-width:3;stroke-linecap:round;marker:none;marker-start:none;marker-mid:none;marker-end:none;stroke-miterlimit:4;stroke-dasharray:none;stroke-dashoffset:0;stroke-opacity:1;visibility:visible;display:inline;overflow:visible;enable-background:accumulate"
       d="M 248.03125 271.34375 C 244.22006 271.13838 225.21032 311.35248 197.25 350.59375 C 205.32122 360.32739 214.04481 370.08725 223.34375 379.25 C 233.78021 362.47602 244.41319 343.77381 246.78125 333.625 C 250.47073 317.81291 250.236 287.12906 249.875 272.5 C 249.10616 271.76414 248.47558 271.36769 248.03125 271.34375 z "
       id="path3281" />
  </g>
</svg>
