<?xml version="1.0" encoding="UTF-8"?>
<svg width="312px" height="280px" viewBox="0 0 312 280" version="1.1" xmlns="http://www.w3.org/2000/svg" xmlns:xlink="http://www.w3.org/1999/xlink">
    <!-- Generator: Sketch 48.2 (47327) - http://www.bohemiancoding.com/sketch -->
    <title>3</title>
    <desc>Created with Sketch.</desc>
    <defs>
        <rect id="path-1" x="45" y="174" width="140" height="49"></rect>
        <filter x="-97.5%" y="-272.4%" width="295.0%" height="657.1%" filterUnits="objectBoundingBox" id="filter-2">
            <feOffset dx="0" dy="3" in="SourceAlpha" result="shadowOffsetOuter1"></feOffset>
            <feGaussianBlur stdDeviation="45" in="shadowOffsetOuter1" result="shadowBlurOuter1"></feGaussianBlur>
            <feColorMatrix values="0 0 0 0 0   0 0 0 0 0   0 0 0 0 0  0 0 0 0.4 0" type="matrix" in="shadowBlurOuter1"></feColorMatrix>
        </filter>
        <rect id="path-3" x="0" y="0" width="230" height="230" rx="8"></rect>
        <linearGradient x1="0%" y1="24.2389356%" x2="100%" y2="75.7294004%" id="linearGradient-5">
            <stop stop-color="#C2E9FB" offset="0%"></stop>
            <stop stop-color="#A1C4FD" offset="100%"></stop>
        </linearGradient>
    </defs>
    <g id="Icons" stroke="none" stroke-width="1" fill="none" fill-rule="evenodd" transform="translate(-84.000000, -320.000000)">
        <g id="3" transform="translate(125.000000, 320.000000)">
            <g id="shadow" fill="black" fill-opacity="1">
                <use filter="url(#filter-2)" xlink:href="#path-1"></use>
            </g>
            <path d="M0,0 L230,0 L230,230 L0,230 L0,0 Z M115,230 C178.512746,230 230,178.512746 230,115 C230,51.4872538 178.512746,0 115,0 C51.4872538,0 0,51.4872538 0,115 C0,178.512746 51.4872538,230 115,230 Z" id="Rectangle" fill="#FFFFFF"></path>
            <g id="Combined-Shape" transform="translate(115.000000, 115.000000) rotate(-180.000000) translate(-115.000000, -115.000000) ">
                <mask id="mask-4" fill="white">
                    <use xlink:href="#path-3"></use>
                </mask>
                <use id="Mask" fill="#FFFFFF" xlink:href="#path-3"></use>
                <path d="M19.511677,146.44332 C26.909015,146.44332 32.9057423,140.446593 32.9057423,133.049255 C32.9057423,125.651917 26.909015,119.65519 19.511677,119.65519 L-11.7411419,119.65519 C-19.1384798,119.65519 -25.1352071,113.658462 -25.1352071,106.261124 C-25.1352071,98.8637865 -19.1384798,92.8670593 -11.7411419,92.8670593 L-29.5998955,92.8670593 C-36.9972335,92.8670593 -42.9939607,86.870332 -42.9939607,79.472994 C-42.9939607,72.0756561 -36.9972335,66.0789288 -29.5998955,66.0789288 L53.7409548,66.0789288 C61.1382928,66.0789288 67.1350201,60.0822015 67.1350201,52.6848636 C67.1350201,45.2875256 61.1382928,39.2907983 53.7409548,39.2907983 L192.146296,39.2907983 C184.748958,39.2907983 178.75223,45.2875256 178.75223,52.6848636 C178.75223,60.0822015 184.748958,66.0789288 192.146296,66.0789288 L221.910885,66.0789288 C229.308223,66.0789288 235.30495,72.0756561 235.30495,79.472994 C235.30495,86.870332 229.308223,92.8670593 221.910885,92.8670593 L151.9641,92.8670593 C159.361438,92.8670593 165.358165,98.8637865 165.358165,106.261124 C165.358165,113.658462 159.361438,119.65519 151.9641,119.65519 L131.128887,119.65519 C123.731549,119.65519 117.734822,125.651917 117.734822,133.049255 C117.734822,140.446593 123.731549,146.44332 131.128887,146.44332 L245.722557,146.44332 C253.119895,146.44332 259.116622,152.440047 259.116622,159.837385 C259.116622,167.234723 253.119895,173.231451 245.722557,173.231451 L35.8822012,173.231451 L52.2527254,173.231451 L238.281409,173.231451 C230.884071,173.231451 224.887344,179.228178 224.887344,186.625516 C224.887344,194.022854 230.884071,200.019581 238.281409,200.019581 L259.116622,200.019581 L233.816721,200.019581 C241.214059,200.019581 247.210786,206.016308 247.210786,213.413646 C247.210786,220.810984 241.214059,226.807712 233.816721,226.807712 L52.2527254,226.807712 C44.8553874,226.807712 38.8586601,220.810984 38.8586601,213.413646 C38.8586601,206.016308 44.8553874,200.019581 52.2527254,200.019581 L35.8822012,200.019581 L52.2527254,200.019581 C59.6500633,200.019581 65.6467906,194.022854 65.6467906,186.625516 C65.6467906,179.228178 59.6500633,173.231451 52.2527254,173.231451 Z M195.122755,39.2907983 L202.563902,39.2907983 L46.2998075,39.2907983 L20.9999065,39.2907983 C13.6025685,39.2907983 7.60584126,33.2940711 7.60584126,25.8967331 C7.60584126,18.4993951 13.6025685,12.5026679 20.9999065,12.5026679 L195.122755,12.5026679 C202.520093,12.5026679 208.51682,18.4993951 208.51682,25.8967331 C208.51682,33.2940711 202.520093,39.2907983 195.122755,39.2907983 Z" fill="url(#linearGradient-5)" opacity="0.1" mask="url(#mask-4)" transform="translate(108.061331, 119.655190) rotate(-30.000000) translate(-108.061331, -119.655190) "></path>
            </g>
            <g id="Group" transform="translate(55.000000, 54.000000)">
                <path d="M119.4,45 L113.6,45 L119,39.6 C119.3,39.3 119.3,38.8 119,38.5 L115.1,34.6 C115,34.5 114.8,34.4 114.6,34.4 C114.4,34.4 114.2,34.5 114.1,34.6 L102.7,46 L101.7,45 C101.5,44.8 101.2,44.7 100.9,44.8 C100.6,44.9 100.4,45.2 100.4,45.5 L100.4,52.5 C100.4,52.9 100.7,53.3 101.2,53.3 L108.1,53.3 C108.4,53.3 108.7,53.1 108.8,52.8 C108.9,52.5 108.9,52.2 108.6,52 L107.6,51 L112,46.6 L119.3,46.6 C120.2,46.6 121,47.4 121,48.3 L121,70.1 L53.5,70.1 L53.5,48.2 C53.5,47.3 54.3,46.5 55.2,46.5 L94.6,46.5 L94.9,46.8 C95,46.9 95.2,47 95.4,47 C95.6,47 95.8,46.9 95.9,46.8 L107.2,35.5 L108.2,36.5 C108.4,36.7 108.7,36.8 109,36.7 C109.3,36.6 109.5,36.3 109.5,36 L109.5,29 C109.5,28.8 109.4,28.6 109.3,28.5 C109.2,28.4 109,28.3 108.8,28.3 L101.9,28.3 C101.6,28.3 101.3,28.5 101.2,28.8 C101.1,29.1 101.1,29.4 101.4,29.6 L102.4,30.6 L91,41.8 C90.7,42.1 90.7,42.6 91,42.9 L93.1,45 L71.7,45 L71.7,18.4 C71.7,15.4 69.2,12.9 66.2,12.9 L18.9,12.9 C15.9,12.9 13.4,15.4 13.4,18.4 L13.4,102.6 C13.4,105.6 15.9,108.1 18.9,108.1 L66.2,108.1 C69.2,108.1 71.7,105.6 71.7,102.6 L71.7,87.3 L119.4,87.3 C121.2,87.3 122.6,85.9 122.6,84.1 L122.6,78.8 L122.6,70.9 L122.6,48.2 C122.6,46.5 121.2,45 119.4,45 Z" id="Path" fill="#577298"></path>
                <path d="M106.1,51.5 L106.3,51.7 L102,51.7 L102,47.3 L102.2,47.5 C102.3,47.6 102.5,47.7 102.7,47.7 C102.9,47.7 103.1,47.6 103.2,47.5 L114.5,36.2 L117.4,39.1 L106.1,50.4 C105.8,50.7 105.8,51.2 106.1,51.5 Z" id="Path" fill="#8085D6"></path>
                <path d="M103.9,31.1 C104.2,30.8 104.2,30.3 103.9,30 L103.7,29.8 L108.1,29.8 L108.1,34.2 L107.9,34 C107.8,33.9 107.6,33.8 107.4,33.8 C107.2,33.8 107,33.9 106.9,34 L95.4,45.2 L92.5,42.3 L103.9,31.1 Z" id="Path" fill="#FFC688"></path>
                <path d="M18.9,14.4 L66.2,14.4 C68.4,14.4 70.2,16.2 70.2,18.4 L70.2,24.7 L14.9,24.7 L14.9,18.4 C14.9,16.2 16.7,14.4 18.9,14.4 Z" id="Path" fill="#FFFFFF"></path>
                <path d="M66.2,106.6 L18.9,106.6 C16.7,106.6 14.9,104.8 14.9,102.6 L14.9,96.3 L70.2,96.3 L70.2,102.6 C70.2,104.8 68.4,106.6 66.2,106.6 Z" id="Path" fill="#FFFFFF"></path>
                <path d="M70.2,94.8 L14.9,94.8 L14.9,26.2 L70.2,26.2 L70.2,45 L55.2,45 C53.4,45 52,46.4 52,48.2 L52,84 C52,85.8 53.4,87.2 55.2,87.2 L70.2,87.2 L70.2,94.8 Z" id="Path" fill="#FFFFFF"></path>
                <path d="M70.2,94.8 L14.9,94.8 L14.9,94.2 C28.3931912,92.0277333 40.0261339,84.9330719 49.7988281,72.9160156 C59.5715224,60.8989594 66.371913,45.3269542 70.2,26.2 L70.2,45 L55.2,45 C53.4,45 52,46.4 52,48.2 L52,84 C52,85.8 53.4,87.2 55.2,87.2 L70.2,87.2 L70.2,94.8 Z" id="Path" fill-opacity="0.06" fill="#577298"></path>
                <path d="M119.4,85.8 L55.2,85.8 C54.3,85.8 53.5,85 53.5,84.1 L53.5,71.6 L121.2,71.6 L121.2,78 L63.7,78 C63.3,78 62.9,78.3 62.9,78.8 C62.9,79.2 63.2,79.6 63.7,79.6 L121.1,79.6 L121.1,84 C121.1,85 120.4,85.8 119.4,85.8 Z" id="Path" fill="#FFFFFF"></path>
                <path d="M119.4,85.8 L55.2,85.8 C54.3,85.8 53.5,85 53.5,84.1 L53.5,84.6 L121.2,78.6 L121.2,78 L63.7,84 C63.3,84 62.9,84.3 62.9,84.8 C62.9,85.2 63.2,85.6 63.7,85.6 L121.1,79.6 L121.1,84 C121.1,85 120.4,85.8 119.4,85.8 Z" id="Path" fill-opacity="0.06" fill="#577298"></path>
                <path d="M39.3,20.1 C38.9,20.1 38.6,19.8 38.5,19.3 C38.5,18.8 38.9,18.5 39.3,18.5 L45.8,18.5 C46.3,18.5 46.6,18.9 46.6,19.3 C46.6,19.8 46.2,20.1 45.8,20.1 L39.3,20.1 Z M52.1,100.5 C52.5,100.5 52.8,100.8 52.8,101.3 C52.8,101.8 52.4,102.1 52,102.1 L33,102.1 C32.5,102.1 32.2,101.7 32.2,101.3 C32.2,100.8 32.6,100.5 33,100.5 L52.1,100.5 Z" id="Combined-Shape" fill="#577298" fill-rule="nonzero"></path>
                <path d="M7.3,40.7 C6.9,40.7 6.6,40.3 6.5,39.9 L6.5,26.9 C6.5,26.4 6.8,26.1 7.3,26.1 C7.8,26.1 8.1,26.5 8.1,26.9 L8.1,39.9 C8.1,40.4 7.7,40.7 7.3,40.7 Z M7.3,49.1 C6.9,49.1 6.6,48.8 6.5,48.3 L6.5,44.1 C6.5,43.6 6.8,43.3 7.3,43.3 C7.8,43.3 8.1,43.7 8.1,44.1 L8.1,48.3 C8.1,48.8 7.7,49.1 7.3,49.1 Z" id="Combined-Shape" fill="#577298" fill-rule="nonzero"></path>
                <path d="M126.7,84 C127.2,84 127.5,84.4 127.5,84.8 L127.5,97.8 C127.5,98.3 127.1,98.6 126.7,98.6 C126.2,98.6 125.9,98.2 125.9,97.8 L125.9,84.8 C125.9,84.3 126.3,84 126.7,84 Z M126.7,101.3 C127.2,101.3 127.5,101.6 127.5,102 L127.5,106.3 C127.5,106.8 127.1,107.1 126.7,107.1 C126.2,107.1 125.9,106.7 125.9,106.3 L125.9,102.1 C125.9,101.6 126.3,101.3 126.7,101.3 Z" id="Combined-Shape" fill="#577298" fill-rule="nonzero"></path>
                <path d="M27.1,3.4 L25.3,1.7 C25,1.4 25,0.9 25.3,0.6 C25.6,0.3 26.1,0.3 26.4,0.6 L28.1,2.3 C28.4,2.6 28.4,3.1 28.1,3.4 C28,3.5 27.8,3.6 27.6,3.6 C27.4,3.6 27.2,3.5 27.1,3.4 Z M32.5,8.8 L30.8,7.1 C30.5,6.8 30.5,6.3 30.8,6 C31.1,5.7 31.6,5.7 31.9,6 L33.5,7.7 C33.8,8 33.8,8.5 33.5,8.8 C33.4,8.9 33.2,9 33,9 C32.8,9 32.6,8.9 32.5,8.8 Z M26,9 C25.8,9 25.6,8.9 25.4,8.8 C25.1,8.5 25.1,8 25.4,7.7 L27.1,6 C27.4,5.7 27.9,5.7 28.2,6 C28.5,6.3 28.5,6.8 28.2,7.1 L26.5,8.8 C26.4,8.9 26.2,9 26,9 Z M31.4,3.6 C31.2,3.6 31,3.5 30.8,3.4 C30.5,3.1 30.5,2.6 30.8,2.3 L32.5,0.6 C32.8,0.3 33.3,0.3 33.6,0.6 C33.9,0.9 33.9,1.4 33.6,1.7 L31.9,3.4 C31.8,3.5 31.6,3.6 31.4,3.6 Z" id="Combined-Shape" fill="#12A0F8" fill-rule="nonzero"></path>
                <path d="M82.5,96.6 L84.1,98.3 C84.4,98.6 84.4,99.1 84.1,99.4 C84,99.5 83.8,99.6 83.6,99.6 C83.4,99.6 83.2,99.5 83.1,99.4 L81.4,97.7 C81.1,97.4 81.1,96.9 81.4,96.6 C81.7,96.3 82.2,96.3 82.5,96.6 Z M87.9,101.9 L89.5,103.6 C89.8,103.9 89.8,104.4 89.5,104.7 C89.4,104.8 89.2,104.9 89,104.9 C88.8,104.9 88.6,104.8 88.5,104.7 L86.8,103 C86.5,102.7 86.5,102.2 86.8,101.9 C87.1,101.6 87.6,101.6 87.9,101.9 Z M83.1,101.9 C83.4,101.7 83.9,101.7 84.1,101.9 C84.4,102.2 84.4,102.7 84.1,103 L82.4,104.7 C82.3,104.8 82.1,104.9 81.9,104.9 C81.7,104.9 81.5,104.8 81.4,104.7 C81.1,104.4 81.1,103.9 81.4,103.6 L83.1,101.9 Z M88.5,96.6 C88.8,96.3 89.3,96.3 89.5,96.6 C89.8,96.9 89.8,97.4 89.5,97.7 L87.8,99.4 C87.7,99.5 87.5,99.6 87.3,99.6 C87.1,99.6 86.9,99.5 86.8,99.4 C86.5,99.1 86.5,98.6 86.8,98.3 L88.5,96.6 Z" id="Combined-Shape" fill="#5578C2" fill-rule="nonzero"></path>
                <path d="M1.8,103.3 L3.4,105 C3.7,105.3 3.7,105.8 3.4,106.1 C3.3,106.2 3.1,106.3 2.9,106.3 C2.7,106.3 2.5,106.2 2.4,106.1 L0.7,104.4 C0.4,104.1 0.4,103.6 0.7,103.3 C1,103 1.5,103 1.8,103.3 Z M7.2,108.6 L8.8,110.3 C9.1,110.6 9.1,111.1 8.8,111.4 C8.7,111.5 8.5,111.6 8.3,111.6 C8.1,111.6 7.9,111.5 7.8,111.4 L6.1,109.7 C5.8,109.4 5.8,108.9 6.1,108.6 C6.4,108.3 6.9,108.3 7.2,108.6 Z M2.4,108.6 C2.7,108.4 3.2,108.4 3.4,108.6 C3.7,108.9 3.7,109.4 3.4,109.7 L1.7,111.4 C1.6,111.5 1.4,111.6 1.2,111.6 C1,111.6 0.8,111.5 0.7,111.4 C0.4,111.1 0.4,110.6 0.7,110.3 L2.4,108.6 Z M7.8,103.3 C8,103 8.5,103 8.8,103.3 C9.1,103.6 9.1,104.1 8.8,104.4 L7.1,106.1 C7,106.2 6.8,106.3 6.6,106.3 C6.4,106.3 6.2,106.2 6.1,106.1 C5.8,105.8 5.8,105.3 6.1,105 L7.8,103.3 Z" id="Combined-Shape" fill="#FFC688" fill-rule="nonzero"></path>
                <path d="M86,24.7 C88.1,24.7 89.8,23 89.8,20.9 C89.8,18.8 88.1,17.1 86,17.1 C83.9,17.1 82.2,18.8 82.2,20.9 C82.2,23 83.9,24.7 86,24.7 Z M86,18.7 C87.3,18.7 88.3,19.7 88.3,21 C88.3,22.3 87.3,23.3 86,23.3 C84.7,23.3 83.7,22.3 83.7,21 C83.7,19.7 84.8,18.7 86,18.7 Z" id="Shape" fill="#8085D6" fill-rule="nonzero"></path>
                <path d="M111.7,109.2 C109.6,109.2 107.9,110.9 107.9,113 C107.9,115.1 109.6,116.8 111.7,116.8 C113.8,116.8 115.5,115.1 115.5,113 C115.5,110.9 113.8,109.2 111.7,109.2 Z M111.7,115.2 C110.4,115.2 109.4,114.2 109.4,112.9 C109.4,111.6 110.4,110.6 111.7,110.6 C113,110.6 114,111.6 114,112.9 C114,114.2 113,115.2 111.7,115.2 Z" id="Shape" fill="#FFC688" fill-rule="nonzero"></path>
                <path d="M95.3,7.9 C94.9,7.9 94.5,7.6 94.5,7.1 C94.5,6.6 94.9,6.3 95.3,6.3 L109.4,6.3 C109.9,6.3 110.2,6.7 110.2,7.1 C110.2,7.6 109.8,7.9 109.4,7.9 L95.3,7.9 Z M114,7.9 C113.5,7.9 113.2,7.6 113.2,7.1 C113.2,6.6 113.6,6.3 114,6.3 L118.6,6.3 C119.1,6.3 119.4,6.7 119.4,7.1 C119.4,7.6 119,7.9 118.6,7.9 L114,7.9 Z M118.5,11.2 C118.9,11.2 119.3,11.6 119.3,12 C119.3,12.5 118.9,12.8 118.5,12.8 L108.7,12.8 C108.2,12.8 107.9,12.4 107.9,12 C107.9,11.5 108.3,11.2 108.7,11.2 L118.5,11.2 Z M101.3,11.2 L104.5,11.2 C105,11.2 105.3,11.6 105.3,12 C105.3,12.5 104.9,12.8 104.5,12.8 L101.3,12.8 C100.8,12.8 100.5,12.4 100.5,12 C100.5,11.5 100.9,11.2 101.3,11.2 Z" id="Combined-Shape" fill="#577298" fill-rule="nonzero"></path>
                <path d="M45.8,120.1 C46.2,120.1 46.5,120.4 46.6,120.9 C46.6,121.4 46.2,121.7 45.8,121.7 L31.7,121.7 C31.2,121.7 30.9,121.3 30.9,120.9 C30.9,120.4 31.3,120.1 31.7,120.1 L45.8,120.1 Z M27.1,120.1 C27.5,120.1 27.9,120.4 27.9,120.9 C27.9,121.4 27.5,121.7 27.1,121.7 L22.5,121.7 C22,121.7 21.7,121.3 21.7,120.9 C21.7,120.4 22.1,120.1 22.5,120.1 L27.1,120.1 Z M22.5,116.7 C22.1,116.7 21.8,116.4 21.7,115.9 C21.7,115.4 22.1,115.1 22.5,115.1 L32.3,115.1 C32.8,115.1 33.1,115.5 33.1,115.9 C33.1,116.4 32.7,116.7 32.3,116.7 L22.5,116.7 Z M39.7,116.7 L36.5,116.7 C36,116.7 35.7,116.3 35.7,115.9 C35.7,115.4 36.1,115.1 36.5,115.1 L39.7,115.1 C40.2,115.1 40.5,115.5 40.5,115.9 C40.5,116.4 40.1,116.7 39.7,116.7 Z" id="Combined-Shape" fill="#93A7B0" fill-rule="nonzero"></path>
                <path d="M59.8,74 C60.2,74 60.5,74.4 60.6,74.8 C60.6,75.3 60.2,75.6 59.8,75.6 L57.8,75.6 C57.3,75.6 57,75.2 57,74.8 C57,74.3 57.4,74 57.8,74 L59.8,74 Z M63.2,75.6 L62.7,75.6 C62.2,75.6 61.9,75.2 61.9,74.8 C61.9,74.3 62.3,74 62.7,74 L63.2,74 C63.7,74 64,74.4 64,74.8 C64,75.3 63.6,75.6 63.2,75.6 Z M67,75.6 C66.6,75.6 66.2,75.2 66.3,74.8 C66.3,74.3 66.7,74 67.1,74 L70,74 C70,74 70.1,74 70.2,74 C70.2,74 70.3,74 70.4,74 L74.1,74 C74.6,74 74.9,74.4 74.9,74.8 C74.9,75.3 74.5,75.6 74.1,75.6 L70.3,75.6 C70.3,75.6 70.2,75.6 70.1,75.6 C70.1,75.6 70,75.6 69.9,75.6 L67,75.6 Z M106,75.6 C105.5,75.6 105.2,75.2 105.2,74.8 C105.2,74.3 105.6,74 106,74 L106.5,74 C107,74 107.3,74.4 107.3,74.8 C107.3,75.3 106.9,75.6 106.5,75.6 L106,75.6 Z M110.3,75.6 C109.9,75.6 109.5,75.2 109.5,74.8 C109.5,74.3 109.9,74 110.3,74 L113.2,74 C113.2,74 113.3,74 113.4,74 C113.4,74 113.5,74 113.6,74 L115.6,74 C116.1,74 116.4,74.4 116.4,74.8 C116.4,75.3 116,75.6 115.6,75.6 L113.6,75.6 C113.6,75.6 113.5,75.6 113.4,75.6 C113.4,75.6 113.3,75.6 113.2,75.6 L110.3,75.6 Z M95.9,75.6 C95.4,75.6 95.1,75.2 95.1,74.8 C95.1,74.3 95.5,74 95.9,74 L98.8,74 C98.8,74 98.9,74 99,74 C99,74 99.1,74 99.2,74 L103,74 C103.5,74 103.8,74.4 103.8,74.8 C103.8,75.3 103.4,75.6 103,75.6 L99.2,75.6 C99.2,75.6 99.1,75.6 99,75.6 C99,75.6 98.9,75.6 98.8,75.6 L95.9,75.6 Z M77.1,75.6 C76.7,75.6 76.3,75.2 76.3,74.8 C76.3,74.3 76.7,74 77.1,74 L77.6,74 C78.1,74 78.4,74.4 78.4,74.8 C78.4,75.3 78,75.6 77.6,75.6 L77.1,75.6 Z M81.4,75.6 C81,75.6 80.7,75.2 80.6,74.8 C80.6,74.3 81,74 81.4,74 L84.3,74 C84.3,74 84.4,74 84.5,74 C84.5,74 84.6,74 84.7,74 L88.5,74 C89,74 89.3,74.4 89.3,74.8 C89.3,75.3 88.9,75.6 88.5,75.6 L84.7,75.6 C84.7,75.6 84.6,75.6 84.5,75.6 C84.5,75.6 84.4,75.6 84.3,75.6 L81.4,75.6 Z M91.5,75.6 C91.1,75.6 90.8,75.2 90.7,74.8 C90.7,74.3 91.1,74 91.5,74 L92,74 C92.5,74 92.8,74.4 92.8,74.8 C92.8,75.3 92.4,75.6 92,75.6 L91.5,75.6 Z" id="Combined-Shape" fill="#12A0F8" fill-rule="nonzero"></path>
                <polygon id="Shape" fill="#12A0F8" fill-rule="nonzero" points="67 63 59 63 59 52 67 52"></polygon>
                <path d="M101.8,55.05 C101.8,55.55 101.4,55.85 101,55.85 L73.8,55.85 C73.3,55.85 73,55.45 73,55.05 C73,54.55 73.4,54.25 73.8,54.25 L101,54.25 C101.5,54.25 101.8,54.65 101.8,55.05 Z M73.8,59.15 L92.3,59.15 C92.8,59.15 93.1,59.55 93.1,59.95 C93.1,60.45 92.7,60.75 92.3,60.75 L73.8,60.75 C73.3,60.75 73,60.35 73,59.95 C73,59.45 73.4,59.15 73.8,59.15 Z" id="Combined-Shape" fill="#12A0F8" fill-rule="nonzero"></path>
            </g>
        </g>
    </g>
</svg>